<?xml version="1.0" standalone="no"?>
<!DOCTYPE svg PUBLIC "-//W3C//DTD SVG 20010904//EN"
 "http://www.w3.org/TR/2001/REC-SVG-20010904/DTD/svg10.dtd">
<svg version="1.0" xmlns="http://www.w3.org/2000/svg"
 width="500.000000pt" height="500.000000pt" viewBox="0 0 500.000000 500.000000"
 preserveAspectRatio="xMidYMid meet">

<g transform="translate(0.000000,500.000000) scale(0.100000,-0.100000)"
fill="#000000" stroke="none">
<path d="M2057 4260 c-58 -15 -92 -36 -130 -81 -41 -47 -62 -120 -52 -178 17
-99 103 -159 310 -216 71 -19 130 -37 132 -39 2 -2 -25 -14 -59 -26 -35 -13
-93 -38 -130 -56 -37 -18 -86 -38 -110 -45 l-43 -12 45 -14 c41 -12 88 -19
147 -22 l22 -1 -19 -33 c-22 -37 -52 -117 -44 -117 17 0 188 133 247 192 37
37 70 62 72 55 2 -7 12 -41 21 -77 28 -106 140 -330 157 -313 4 3 7 49 7 101
l0 94 28 -7 c15 -4 54 -9 86 -12 l60 -5 -55 48 c-71 63 -122 120 -144 163
l-17 34 24 -7 c176 -51 264 -68 361 -73 103 -5 109 -5 147 21 62 41 95 98 94
165 0 108 -50 187 -148 239 -45 24 -62 27 -146 27 -82 0 -104 -4 -160 -29 -80
-35 -155 -90 -195 -144 -16 -23 -35 -42 -41 -42 -6 0 -16 27 -22 60 -16 87
-51 156 -116 227 -94 102 -221 150 -329 123z m94 -152 c32 -10 61 -34 128
-106 79 -86 141 -167 141 -184 0 -24 -295 122 -337 167 -36 37 -43 79 -21 115
15 23 33 25 89 8z m863 -204 c45 -44 43 -78 -5 -119 -30 -25 -33 -25 -197 -25
-92 0 -173 4 -180 9 -18 11 101 63 196 86 74 18 101 34 60 36 -15 1 -7 6 22
14 62 18 86 18 104 -1z"/>
<path d="M2537 4023 c-12 -12 -7 -43 7 -43 18 0 39 27 31 40 -7 11 -28 13 -38
3z"/>
<path d="M3264 3746 c-7 -19 3 -36 22 -36 10 0 14 8 12 22 -4 26 -26 36 -34
14z"/>
<path d="M3253 3647 c-167 -107 -377 -241 -564 -359 l-165 -104 -320 136
c-175 75 -376 162 -446 193 -76 33 -130 51 -134 45 -9 -15 1 -20 121 -71 310
-130 736 -315 745 -323 5 -6 38 -515 39 -606 1 -54 0 -58 -21 -55 -18 2 -24
-4 -26 -25 -3 -23 1 -28 18 -28 14 0 24 8 28 23 4 13 9 -16 12 -70 5 -90 11
-110 27 -100 4 3 -3 194 -17 426 l-25 420 155 100 c170 110 375 240 574 366
122 77 155 105 124 105 -7 0 -64 -33 -125 -73z"/>
<path d="M1861 3551 c-7 -13 -6 -23 3 -36 17 -24 50 -15 54 14 6 39 -39 56
-57 22z"/>
<path d="M1663 3467 c-27 -12 -31 -54 -7 -64 22 -8 48 9 52 34 4 28 -18 43
-45 30z"/>
<path d="M2397 3373 c-14 -14 -7 -52 12 -58 38 -12 73 23 50 51 -12 15 -51 19
-62 7z"/>
<path d="M3297 3313 c-11 -10 -8 -41 4 -49 16 -9 43 21 36 40 -7 16 -28 21
-40 9z"/>
<path d="M2337 3042 c-22 -24 -21 -45 1 -65 24 -22 55 -21 75 1 22 24 21 45
-1 65 -24 22 -55 21 -75 -1z"/>
<path d="M3260 3045 c-9 -10 -10 -19 -3 -26 14 -14 45 0 41 19 -4 22 -23 25
-38 7z"/>
<path d="M1824 3015 c-8 -20 4 -35 27 -35 14 0 19 7 19 25 0 18 -5 25 -20 25
-11 0 -23 -7 -26 -15z"/>
<path d="M2644 2816 c-15 -24 -15 -28 0 -52 24 -35 66 -30 85 10 18 38 5 60
-37 64 -24 2 -34 -3 -48 -22z"/>
<path d="M2360 2811 c-7 -15 -6 -23 6 -35 8 -9 19 -16 23 -16 17 0 32 30 26
50 -8 25 -41 26 -55 1z"/>
<path d="M540 2065 l0 -165 30 0 c29 0 30 1 30 50 l0 50 80 0 80 0 0 -50 c0
-49 1 -50 30 -50 l30 0 0 165 0 165 -30 0 -30 0 0 -85 0 -85 -80 0 -80 0 0 85
0 85 -30 0 -30 0 0 -165z"/>
<path d="M1015 2078 c-37 -84 -69 -159 -72 -165 -9 -23 55 -16 67 7 9 17 21
20 85 20 64 0 76 -3 85 -20 7 -13 21 -20 41 -20 17 0 29 4 27 9 -28 76 -145
321 -154 321 -6 0 -41 -69 -79 -152z m114 -36 l21 -52 -55 0 -55 0 21 53 c12
28 24 58 27 66 6 16 12 8 41 -67z"/>
<path d="M1370 2065 l0 -165 30 0 c28 0 30 3 30 35 0 34 1 35 38 35 80 0 145
58 145 130 0 82 -64 130 -175 130 l-68 0 0 -165z m158 89 c17 -11 22 -24 22
-54 0 -35 -5 -43 -32 -60 -18 -11 -45 -20 -60 -20 l-28 0 0 81 0 81 38 -7 c20
-3 47 -13 60 -21z"/>
<path d="M1747 2223 c-4 -3 -7 -78 -7 -165 l0 -158 30 0 c28 0 30 3 30 35 0
34 1 35 40 35 86 0 150 55 150 128 0 82 -66 131 -176 132 -33 0 -64 -3 -67 -7z
m161 -76 c27 -25 29 -70 3 -96 -21 -21 -83 -37 -100 -26 -12 7 -15 138 -4 149
13 12 77 -4 101 -27z"/>
<path d="M2090 2219 c0 -7 23 -51 50 -99 46 -81 50 -92 50 -154 l0 -66 30 0
30 0 0 62 c0 56 5 70 55 159 30 53 55 100 55 104 0 3 -15 5 -32 3 -29 -3 -37
-11 -67 -65 -19 -34 -38 -60 -42 -57 -5 2 -22 32 -40 64 -27 52 -36 60 -60 60
-16 0 -29 -5 -29 -11z"/>
<path d="M2470 2065 l0 -165 30 0 c29 0 30 1 30 50 l0 50 85 0 85 0 0 -50 c0
-49 1 -50 30 -50 l30 0 0 165 0 165 -30 0 -30 0 0 -85 0 -85 -85 0 -85 0 0 85
0 85 -30 0 -30 0 0 -165z"/>
<path d="M2969 2208 c-99 -57 -108 -215 -15 -281 25 -18 45 -22 101 -22 56 0
76 4 101 22 93 67 84 226 -16 282 -50 28 -123 28 -171 -1z m162 -67 c24 -24
29 -38 29 -76 0 -38 -5 -52 -29 -76 -24 -24 -38 -29 -76 -29 -38 0 -52 5 -76
29 -24 24 -29 38 -29 76 0 66 39 105 105 105 38 0 52 -5 76 -29z"/>
<path d="M3350 2110 c0 -134 9 -163 60 -194 37 -21 114 -21 151 1 47 28 59 67
59 197 l0 116 -30 0 -30 0 0 -115 c0 -102 -2 -117 -20 -135 -20 -20 -36 -24
-75 -20 -42 4 -50 25 -55 148 l-5 117 -27 3 -28 3 0 -121z"/>
<path d="M3789 2201 c-31 -31 -37 -67 -18 -102 5 -11 44 -35 85 -54 82 -38 92
-56 43 -84 -23 -13 -30 -12 -73 9 -43 20 -49 21 -63 7 -9 -8 -13 -22 -10 -30
9 -23 72 -47 127 -47 44 0 56 4 81 29 57 58 33 120 -61 157 -80 31 -103 66
-54 84 20 8 34 6 57 -5 27 -14 32 -14 49 1 10 10 18 21 18 25 0 17 -60 39
-105 39 -38 0 -52 -5 -76 -29z"/>
<path d="M4120 2065 l0 -165 126 0 125 0 -3 28 -3 27 -92 3 -93 3 0 29 0 29
73 3 c70 3 72 4 75 31 l3 27 -75 0 -76 0 0 45 0 44 93 3 c91 3 92 3 92 28 l0
25 -122 3 -123 3 0 -166z"/>
</g>
</svg>
